<svg xmlns="http://www.w3.org/2000/svg" width="850" height="970" viewBox="0 0 850 970"><rect width="850" height="970" fill="white"/>
<text x="20" y="42" font-family="Arial" font-size="23" font-weight="700" fill="black">Modelo de datos — Bodega Norte</text>
<text x="20" y="76" font-family="Arial" font-size="21" font-weight="400" fill="black">Esquema privado bodega_norte: nueve tablas</text>
<polyline points="705,140 705,180" fill="none" stroke="black" stroke-width="2"/>
<polyline points="145,360 145,420" fill="none" stroke="black" stroke-width="2"/>
<polyline points="425,360 425,385 245,385 245,420" fill="none" stroke="black" stroke-width="2"/>
<polyline points="550,500 580,500" fill="none" stroke="black" stroke-width="2"/>
<polyline points="270,570 285,570 285,645 705,645 705,600" fill="none" stroke="black" stroke-width="2"/>
<polyline points="145,600 145,675 425,675 425,700" fill="none" stroke="black" stroke-width="2"/>
<rect x="580" y="90" width="250" height="50" fill="white" stroke="black" stroke-width="2"/>
<text x="592" y="124" font-family="Arial" font-size="23" font-weight="700" fill="black">auth.users (externa)</text>
<polyline points="580,138 830,138" fill="none" stroke="black" stroke-width="2"/>
<rect x="20" y="180" width="250" height="180" fill="white" stroke="black" stroke-width="2"/>
<text x="32" y="214" font-family="Arial" font-size="23" font-weight="700" fill="black">categories</text>
<polyline points="20,228 270,228" fill="none" stroke="black" stroke-width="2"/>
<text x="32" y="260" font-family="Arial" font-size="21" font-weight="400" fill="black">category_id PK</text>
<text x="32" y="287" font-family="Arial" font-size="21" font-weight="400" fill="black">name, is_active</text>
<rect x="300" y="180" width="250" height="180" fill="white" stroke="black" stroke-width="2"/>
<text x="312" y="214" font-family="Arial" font-size="23" font-weight="700" fill="black">suppliers</text>
<polyline points="300,228 550,228" fill="none" stroke="black" stroke-width="2"/>
<text x="312" y="260" font-family="Arial" font-size="21" font-weight="400" fill="black">supplier_id PK</text>
<text x="312" y="287" font-family="Arial" font-size="21" font-weight="400" fill="black">name, contact_name</text>
<text x="312" y="314" font-family="Arial" font-size="21" font-weight="400" fill="black">phone, is_active</text>
<rect x="580" y="180" width="250" height="180" fill="white" stroke="black" stroke-width="2"/>
<text x="592" y="214" font-family="Arial" font-size="23" font-weight="700" fill="black">members</text>
<polyline points="580,228 830,228" fill="none" stroke="black" stroke-width="2"/>
<text x="592" y="260" font-family="Arial" font-size="21" font-weight="400" fill="black">user_id PK/FK Auth</text>
<text x="592" y="287" font-family="Arial" font-size="21" font-weight="400" fill="black">email UNIQUE</text>
<text x="592" y="314" font-family="Arial" font-size="21" font-weight="400" fill="black">role, is_active</text>
<rect x="20" y="420" width="250" height="180" fill="white" stroke="black" stroke-width="2"/>
<text x="32" y="454" font-family="Arial" font-size="23" font-weight="700" fill="black">products</text>
<polyline points="20,468 270,468" fill="none" stroke="black" stroke-width="2"/>
<text x="32" y="500" font-family="Arial" font-size="21" font-weight="400" fill="black">product_id PK</text>
<text x="32" y="527" font-family="Arial" font-size="21" font-weight="400" fill="black">category_id FK</text>
<text x="32" y="554" font-family="Arial" font-size="21" font-weight="400" fill="black">supplier_id FK</text>
<text x="32" y="581" font-family="Arial" font-size="21" font-weight="400" fill="black">stock, cost, version</text>
<rect x="300" y="420" width="250" height="180" fill="white" stroke="black" stroke-width="2"/>
<text x="312" y="454" font-family="Arial" font-size="23" font-weight="700" fill="black">sales</text>
<polyline points="300,468 550,468" fill="none" stroke="black" stroke-width="2"/>
<text x="312" y="500" font-family="Arial" font-size="21" font-weight="400" fill="black">sale_id PK</text>
<text x="312" y="527" font-family="Arial" font-size="21" font-weight="400" fill="black">request_id UNIQUE</text>
<text x="312" y="554" font-family="Arial" font-size="21" font-weight="400" fill="black">total, sold_at</text>
<text x="312" y="581" font-family="Arial" font-size="21" font-weight="400" fill="black">status, actor_email</text>
<rect x="580" y="420" width="250" height="180" fill="white" stroke="black" stroke-width="2"/>
<text x="592" y="454" font-family="Arial" font-size="23" font-weight="700" fill="black">sale_items</text>
<polyline points="580,468 830,468" fill="none" stroke="black" stroke-width="2"/>
<text x="592" y="500" font-family="Arial" font-size="21" font-weight="400" fill="black">sale_item_id PK</text>
<text x="592" y="527" font-family="Arial" font-size="21" font-weight="400" fill="black">sale_id FK</text>
<text x="592" y="554" font-family="Arial" font-size="21" font-weight="400" fill="black">product_id FK</text>
<text x="592" y="581" font-family="Arial" font-size="21" font-weight="400" fill="black">quantity, unit_cost</text>
<rect x="20" y="700" width="250" height="180" fill="white" stroke="black" stroke-width="2"/>
<text x="32" y="734" font-family="Arial" font-size="23" font-weight="700" fill="black">settings</text>
<polyline points="20,748 270,748" fill="none" stroke="black" stroke-width="2"/>
<text x="32" y="780" font-family="Arial" font-size="21" font-weight="400" fill="black">id PK (=1)</text>
<text x="32" y="807" font-family="Arial" font-size="21" font-weight="400" fill="black">name, ruc, address</text>
<text x="32" y="834" font-family="Arial" font-size="21" font-weight="400" fill="black">phone, stock_alerts</text>
<rect x="300" y="700" width="250" height="180" fill="white" stroke="black" stroke-width="2"/>
<text x="312" y="734" font-family="Arial" font-size="23" font-weight="700" fill="black">stock_movements</text>
<polyline points="300,748 550,748" fill="none" stroke="black" stroke-width="2"/>
<text x="312" y="780" font-family="Arial" font-size="21" font-weight="400" fill="black">movement_id PK</text>
<text x="312" y="807" font-family="Arial" font-size="21" font-weight="400" fill="black">product_id FK</text>
<text x="312" y="834" font-family="Arial" font-size="21" font-weight="400" fill="black">quantity, balance</text>
<text x="312" y="861" font-family="Arial" font-size="21" font-weight="400" fill="black">type, reason, actor</text>
<rect x="580" y="700" width="250" height="180" fill="white" stroke="black" stroke-width="2"/>
<text x="592" y="734" font-family="Arial" font-size="23" font-weight="700" fill="black">audit_log</text>
<polyline points="580,748 830,748" fill="none" stroke="black" stroke-width="2"/>
<text x="592" y="780" font-family="Arial" font-size="21" font-weight="400" fill="black">audit_id PK</text>
<text x="592" y="807" font-family="Arial" font-size="21" font-weight="400" fill="black">action, entity</text>
<text x="592" y="834" font-family="Arial" font-size="21" font-weight="400" fill="black">details JSONB</text>
<text x="592" y="861" font-family="Arial" font-size="21" font-weight="400" fill="black">actor, created_at</text>
<text x="20" y="924" font-family="Arial" font-size="21" font-weight="400" fill="black">PK: clave primaria. FK: clave foránea. Campos resumidos.</text>
<text x="20" y="956" font-family="Arial" font-size="21" font-weight="400" fill="black">RLS habilitado; acceso operativo por el backend autorizado.</text>
</svg>